<svg width="20" height="16" viewBox="0 0 20 16" fill="none" xmlns="http://www.w3.org/2000/svg">
<path id="Vector" d="M6.46886 15.4691C13.639 15.4691 17.5613 9.52808 17.5613 4.38502C17.5613 4.21877 17.5613 4.05015 17.5542 3.8839C18.3178 3.3311 18.9769 2.6467 19.5005 1.86277C18.7872 2.17728 18.0313 2.38457 17.2573 2.4779C18.0726 1.99059 18.6832 1.22386 18.9756 0.320208C18.2097 0.773981 17.3713 1.09253 16.4973 1.2619C15.9097 0.636111 15.1322 0.221548 14.2851 0.0824204C13.438 -0.0567074 12.5687 0.0873651 11.8118 0.492321C11.0549 0.897278 10.4527 1.54052 10.0984 2.3224C9.7441 3.10429 9.65751 3.98119 9.85205 4.81727C8.30206 4.73955 6.78571 4.33689 5.40135 3.6354C4.017 2.93392 2.79555 1.94927 1.81624 0.745333C1.31908 1.60399 1.16736 2.61968 1.39188 3.58615C1.6164 4.55261 2.20034 5.3974 3.02511 5.94896C2.40707 5.92796 1.80261 5.762 1.26049 5.46446V5.5179C1.26155 6.4174 1.57317 7.28896 2.14265 7.98524C2.71214 8.68151 3.50456 9.15981 4.38599 9.33927C4.05143 9.43144 3.70582 9.47738 3.3588 9.47583C3.11416 9.47658 2.87 9.45391 2.62968 9.40815C2.8788 10.1825 3.36388 10.8595 4.01697 11.3443C4.67006 11.8292 5.45846 12.0977 6.27174 12.1121C4.89015 13.1972 3.18353 13.7858 1.42674 13.7829C1.11718 13.7842 0.807841 13.7664 0.500488 13.7295C2.28354 14.8662 4.35428 15.4698 6.46886 15.4691Z" fill="black"/>
</svg>
